<?xml version="1.0" encoding="UTF-8" standalone="no"?>
<!-- Created with Inkscape (http://www.inkscape.org/) -->

<svg
   xmlns:dc="http://purl.org/dc/elements/1.1/"
   xmlns:cc="http://creativecommons.org/ns#"
   xmlns:rdf="http://www.w3.org/1999/02/22-rdf-syntax-ns#"
   xmlns:svg="http://www.w3.org/2000/svg"
   xmlns="http://www.w3.org/2000/svg"
   xmlns:sodipodi="http://sodipodi.sourceforge.net/DTD/sodipodi-0.dtd"
   xmlns:inkscape="http://www.inkscape.org/namespaces/inkscape"
   width="126.00763mm"
   height="8.5008631mm"
   viewBox="0 0 126.00763 8.5008631"
   version="1.1"
   id="svg8"
   inkscape:version="0.92.4 (5da689c313, 2019-01-14)"
   sodipodi:docname="iv.svg">
  <defs
     id="defs2" />
  <sodipodi:namedview
     id="base"
     pagecolor="#ffffff"
     bordercolor="#666666"
     borderopacity="1.0"
     inkscape:pageopacity="0"
     inkscape:pageshadow="2"
     inkscape:zoom="2.0000001"
     inkscape:cx="269.84468"
     inkscape:cy="-162.92442"
     inkscape:document-units="mm"
     inkscape:current-layer="layer5"
     showgrid="false"
     showguides="true"
     inkscape:guide-bbox="true"
     inkscape:pagecheckerboard="true"
     inkscape:window-width="2560"
     inkscape:window-height="1346"
     inkscape:window-x="-11"
     inkscape:window-y="-11"
     inkscape:window-maximized="1">
    <sodipodi:guide
       position="4.3011354,-5.3219324"
       orientation="1,0"
       id="guide4555"
       inkscape:locked="false" />
  </sodipodi:namedview>
  <metadata
     id="metadata5">
    <rdf:RDF>
      <cc:Work
         rdf:about="">
        <dc:format>image/svg+xml</dc:format>
        <dc:type
           rdf:resource="http://purl.org/dc/dcmitype/StillImage" />
        <dc:title />
      </cc:Work>
    </rdf:RDF>
  </metadata>
  <g
     inkscape:groupmode="layer"
     id="layer5"
     inkscape:label="BG mask"
     style="display:inline"
     transform="translate(-11.357277,-66.0737)">
    <path
       id="rect856"
       transform="scale(0.26458333)"
       style="display:inline;opacity:1;fill:#e18079;fill-opacity:1;fill-rule:evenodd;stroke:#000000;stroke-width:0;stroke-linecap:butt;stroke-linejoin:miter;stroke-miterlimit:4;stroke-dasharray:none;stroke-opacity:1;paint-order:markers fill stroke"
       d="m 367.30859,770.21875 v 32.12695 h 135.61133 a 16.064598,16.064598 0 1 0 0,-32.12695 z m -159.95898,0 v 32.12695 h 153.91211 v -32.12695 z m -148.169922,0 a 16.064598,16.064598 0 1 0 0,32.12695 H 201.29688 v -32.12695 z" />
    <path
       id="path1140"
       transform="scale(0.26458333)"
       style="display:inline;opacity:1;fill:#e2e2e2;fill-opacity:1;fill-rule:evenodd;stroke:#000000;stroke-width:0;stroke-linecap:butt;stroke-linejoin:miter;stroke-miterlimit:4;stroke-dasharray:none;stroke-opacity:1;paint-order:markers fill stroke"
       d="m 367.30859,249.72852 v 32.12695 h 135.61133 a 16.064598,16.064598 0 1 0 0,-32.12695 z m -159.95898,0 v 32.12695 h 153.91211 v -32.12695 z m -148.169922,0 a 16.064598,16.064598 0 1 0 0,32.12695 H 201.29688 v -32.12695 z"
       inkscape:export-xdpi="400"
       inkscape:export-ydpi="400"
       inkscape:connector-curvature="0" />
    <path
       id="path1134"
       transform="scale(0.26458333)"
       style="display:inline;opacity:1;fill:#e2e2e2;fill-opacity:1;fill-rule:evenodd;stroke:#000000;stroke-width:0;stroke-linecap:butt;stroke-linejoin:miter;stroke-miterlimit:4;stroke-dasharray:none;stroke-opacity:1;paint-order:markers fill stroke"
       d="m 367.30859,285.9082 v 32.125 h 135.61133 a 16.064598,16.064598 0 1 0 0,-32.125 z m -159.95898,0 v 32.125 h 153.91211 v -32.125 z m -148.169922,0 a 16.064598,16.064598 0 1 0 0,32.125 H 201.29688 v -32.125 z"
       inkscape:connector-curvature="0" />
    <path
       id="path1128"
       transform="scale(0.26458333)"
       style="display:inline;opacity:1;fill:#e2e2e2;fill-opacity:1;fill-rule:evenodd;stroke:#000000;stroke-width:0;stroke-linecap:butt;stroke-linejoin:miter;stroke-miterlimit:4;stroke-dasharray:none;stroke-opacity:1;paint-order:markers fill stroke"
       d="m 367.30859,320.14453 v 32.12695 h 135.61133 a 16.064598,16.064598 0 1 0 0,-32.12695 z m -159.95898,0 v 32.12695 h 153.91211 v -32.12695 z m -148.169922,0 a 16.064598,16.064598 0 1 0 0,32.12695 H 201.29688 v -32.12695 z" />
    <path
       id="path1122"
       transform="scale(0.26458333)"
       style="display:inline;opacity:1;fill:#e2e2e2;fill-opacity:1;fill-rule:evenodd;stroke:#000000;stroke-width:0;stroke-linecap:butt;stroke-linejoin:miter;stroke-miterlimit:4;stroke-dasharray:none;stroke-opacity:1;paint-order:markers fill stroke"
       d="m 367.30859,354.84766 v 32.125 h 135.61133 a 16.064598,16.064598 0 1 0 0,-32.125 z m -159.95898,0 v 32.125 h 153.91211 v -32.125 z m -148.169922,0 a 16.064598,16.064598 0 1 0 0,32.125 H 201.29688 v -32.125 z" />
    <path
       id="path1116"
       transform="scale(0.26458333)"
       style="display:inline;opacity:1;fill:#e2e2e2;fill-opacity:1;fill-rule:evenodd;stroke:#000000;stroke-width:0;stroke-linecap:butt;stroke-linejoin:miter;stroke-miterlimit:4;stroke-dasharray:none;stroke-opacity:1;paint-order:markers fill stroke"
       d="M 367.30859,389.49805 V 421.625 h 135.61133 a 16.064598,16.064598 0 1 0 0,-32.12695 z m -159.95898,0 V 421.625 h 153.91211 v -32.12695 z m -148.169922,0 a 16.064598,16.064598 0 1 0 0,32.12695 H 201.29688 v -32.12695 z" />
    <path
       id="path1110"
       transform="scale(0.26458333)"
       style="display:inline;opacity:1;fill:#e2e2e2;fill-opacity:1;fill-rule:evenodd;stroke:#000000;stroke-width:0;stroke-linecap:butt;stroke-linejoin:miter;stroke-miterlimit:4;stroke-dasharray:none;stroke-opacity:1;paint-order:markers fill stroke"
       d="m 367.30859,423.5957 v 32.125 h 135.61133 a 16.064598,16.064598 0 1 0 0,-32.125 z m -159.95898,0 v 32.125 h 153.91211 v -32.125 z m -148.169922,0 a 16.064598,16.064598 0 1 0 0,32.125 H 201.29688 v -32.125 z" />
    <path
       style="display:inline;opacity:1;fill:#e2e2e2;fill-opacity:1;fill-rule:evenodd;stroke:#000000;stroke-width:0;stroke-linecap:butt;stroke-linejoin:miter;stroke-miterlimit:4;stroke-dasharray:none;stroke-opacity:1;paint-order:markers fill stroke"
       d="m 59.179688,459.31641 a 16.064598,16.064598 0 1 0 0,32.125 H 201.29688 v -32.125 z"
       transform="scale(0.26458333)"
       id="path1108"
       inkscape:connector-curvature="0" />
    <path
       id="path1104"
       transform="scale(0.26458333)"
       style="display:inline;opacity:1;fill:#e2e2e2;fill-opacity:1;fill-rule:evenodd;stroke:#000000;stroke-width:0;stroke-linecap:butt;stroke-linejoin:miter;stroke-miterlimit:4;stroke-dasharray:none;stroke-opacity:1;paint-order:markers fill stroke"
       d="m 367.30859,459.31641 v 32.125 h 135.61133 a 16.064598,16.064598 0 1 0 0,-32.125 z m -159.95898,0 v 32.125 h 153.91211 v -32.125 z" />
    <path
       style="display:inline;opacity:1;fill:#e2e2e2;fill-opacity:1;fill-rule:evenodd;stroke:#000000;stroke-width:0;stroke-linecap:butt;stroke-linejoin:miter;stroke-miterlimit:4;stroke-dasharray:none;stroke-opacity:1;paint-order:markers fill stroke"
       d="m 59.179688,494.05469 a 16.064598,16.064598 0 1 0 0,32.12695 H 201.29688 v -32.12695 z"
       transform="scale(0.26458333)"
       id="path1102"
       inkscape:connector-curvature="0" />
    <path
       id="path1098"
       transform="scale(0.26458333)"
       style="display:inline;opacity:1;fill:#e2e2e2;fill-opacity:1;fill-rule:evenodd;stroke:#000000;stroke-width:0;stroke-linecap:butt;stroke-linejoin:miter;stroke-miterlimit:4;stroke-dasharray:none;stroke-opacity:1;paint-order:markers fill stroke"
       d="m 367.30859,494.05469 v 32.12695 h 135.61133 a 16.064598,16.064598 0 1 0 0,-32.12695 z m -159.95898,0 v 32.12695 h 153.91211 v -32.12695 z" />
    <path
       style="display:inline;opacity:1;fill:#e2e2e2;fill-opacity:1;fill-rule:evenodd;stroke:#000000;stroke-width:0;stroke-linecap:butt;stroke-linejoin:miter;stroke-miterlimit:4;stroke-dasharray:none;stroke-opacity:1;paint-order:markers fill stroke"
       d="m 59.179688,528.40234 a 16.064598,16.064598 0 1 0 0,32.12696 H 201.29688 v -32.12696 z"
       transform="scale(0.26458333)"
       id="path1096"
       inkscape:connector-curvature="0" />
    <path
       id="path1092"
       transform="scale(0.26458333)"
       style="display:inline;opacity:1;fill:#e2e2e2;fill-opacity:1;fill-rule:evenodd;stroke:#000000;stroke-width:0;stroke-linecap:butt;stroke-linejoin:miter;stroke-miterlimit:4;stroke-dasharray:none;stroke-opacity:1;paint-order:markers fill stroke"
       d="m 367.30859,528.40234 v 32.12696 h 135.61133 a 16.064598,16.064598 0 1 0 0,-32.12696 z m -159.95898,0 v 32.12696 h 153.91211 v -32.12696 z" />
    <path
       style="display:inline;opacity:1;fill:#e2e2e2;fill-opacity:1;fill-rule:evenodd;stroke:#000000;stroke-width:0;stroke-linecap:butt;stroke-linejoin:miter;stroke-miterlimit:4;stroke-dasharray:none;stroke-opacity:1;paint-order:markers fill stroke"
       d="m 59.179688,563.38672 a 16.064598,16.064598 0 1 0 0,32.125 H 201.29688 v -32.125 z"
       transform="scale(0.26458333)"
       id="path1090"
       inkscape:connector-curvature="0" />
    <path
       id="path1086"
       transform="scale(0.26458333)"
       style="display:inline;opacity:1;fill:#e2e2e2;fill-opacity:1;fill-rule:evenodd;stroke:#000000;stroke-width:0;stroke-linecap:butt;stroke-linejoin:miter;stroke-miterlimit:4;stroke-dasharray:none;stroke-opacity:1;paint-order:markers fill stroke"
       d="m 367.30859,563.38672 v 32.125 h 135.61133 a 16.064598,16.064598 0 1 0 0,-32.125 z m -159.95898,0 v 32.125 h 153.91211 v -32.125 z" />
    <path
       style="display:inline;opacity:1;fill:#e2e2e2;fill-opacity:1;fill-rule:evenodd;stroke:#000000;stroke-width:0;stroke-linecap:butt;stroke-linejoin:miter;stroke-miterlimit:4;stroke-dasharray:none;stroke-opacity:1;paint-order:markers fill stroke"
       d="m 59.179688,597.89648 a 16.064598,16.064598 0 1 0 0,32.125 H 201.29688 v -32.125 z"
       transform="scale(0.26458333)"
       id="path1084"
       inkscape:connector-curvature="0" />
    <path
       id="path1080"
       transform="scale(0.26458333)"
       style="display:inline;opacity:1;fill:#e2e2e2;fill-opacity:1;fill-rule:evenodd;stroke:#000000;stroke-width:0;stroke-linecap:butt;stroke-linejoin:miter;stroke-miterlimit:4;stroke-dasharray:none;stroke-opacity:1;paint-order:markers fill stroke"
       d="m 367.30859,597.89648 v 32.125 h 135.61133 a 16.064598,16.064598 0 1 0 0,-32.125 z m -159.95898,0 v 32.125 h 153.91211 v -32.125 z" />
    <path
       style="display:inline;opacity:1;fill:#e2e2e2;fill-opacity:1;fill-rule:evenodd;stroke:#000000;stroke-width:0;stroke-linecap:butt;stroke-linejoin:miter;stroke-miterlimit:4;stroke-dasharray:none;stroke-opacity:1;paint-order:markers fill stroke"
       d="m 59.179688,631.93359 a 16.064598,16.064598 0 1 0 0,32.12696 H 201.29688 v -32.12696 z"
       transform="scale(0.26458333)"
       id="path1078"
       inkscape:connector-curvature="0" />
    <path
       style="display:inline;opacity:1;fill:#e2e2e2;fill-opacity:1;fill-rule:evenodd;stroke:#000000;stroke-width:0;stroke-linecap:butt;stroke-linejoin:miter;stroke-miterlimit:4;stroke-dasharray:none;stroke-opacity:1;paint-order:markers fill stroke"
       d="m 207.34961,631.93359 v 32.12696 h 153.91211 v -32.12696 z"
       transform="scale(0.26458333)"
       id="path1076"
       inkscape:connector-curvature="0" />
    <path
       style="display:inline;opacity:1;fill:#e2e2e2;fill-opacity:1;fill-rule:evenodd;stroke:#000000;stroke-width:0;stroke-linecap:butt;stroke-linejoin:miter;stroke-miterlimit:4;stroke-dasharray:none;stroke-opacity:1;paint-order:markers fill stroke"
       d="m 367.30859,631.93359 v 32.12696 h 135.61133 a 16.064598,16.064598 0 1 0 0,-32.12696 z"
       transform="scale(0.26458333)"
       id="path1074"
       inkscape:connector-curvature="0" />
    <path
       style="display:inline;opacity:1;fill:#e2e2e2;fill-opacity:1;fill-rule:evenodd;stroke:#000000;stroke-width:0;stroke-linecap:butt;stroke-linejoin:miter;stroke-miterlimit:4;stroke-dasharray:none;stroke-opacity:1;paint-order:markers fill stroke"
       d="m 59.179688,666.12695 a 16.064598,16.064598 0 1 0 0,32.12696 H 201.29688 v -32.12696 z"
       transform="scale(0.26458333)"
       id="path1072"
       inkscape:connector-curvature="0" />
    <path
       style="display:inline;opacity:1;fill:#e2e2e2;fill-opacity:1;fill-rule:evenodd;stroke:#000000;stroke-width:0;stroke-linecap:butt;stroke-linejoin:miter;stroke-miterlimit:4;stroke-dasharray:none;stroke-opacity:1;paint-order:markers fill stroke"
       d="m 207.34961,666.12695 v 32.12696 h 153.91211 v -32.12696 z"
       transform="scale(0.26458333)"
       id="path1070"
       inkscape:connector-curvature="0" />
    <path
       style="display:inline;opacity:1;fill:#e2e2e2;fill-opacity:1;fill-rule:evenodd;stroke:#000000;stroke-width:0;stroke-linecap:butt;stroke-linejoin:miter;stroke-miterlimit:4;stroke-dasharray:none;stroke-opacity:1;paint-order:markers fill stroke"
       d="m 367.30859,666.12695 v 32.12696 h 135.61133 a 16.064598,16.064598 0 1 0 0,-32.12696 z"
       transform="scale(0.26458333)"
       id="path1068"
       inkscape:connector-curvature="0" />
    <path
       style="display:inline;opacity:1;fill:#e2e2e2;fill-opacity:1;fill-rule:evenodd;stroke:#000000;stroke-width:0;stroke-linecap:butt;stroke-linejoin:miter;stroke-miterlimit:4;stroke-dasharray:none;stroke-opacity:1;paint-order:markers fill stroke"
       d="m 59.179688,702.57227 a 16.064598,16.064598 0 1 0 0,32.125 H 201.29688 v -32.125 z"
       transform="scale(0.26458333)"
       id="path1066"
       inkscape:connector-curvature="0" />
    <path
       style="display:inline;opacity:1;fill:#e2e2e2;fill-opacity:1;fill-rule:evenodd;stroke:#000000;stroke-width:0;stroke-linecap:butt;stroke-linejoin:miter;stroke-miterlimit:4;stroke-dasharray:none;stroke-opacity:1;paint-order:markers fill stroke"
       d="m 207.34961,702.57227 v 32.125 h 153.91211 v -32.125 z"
       transform="scale(0.26458333)"
       id="path1064"
       inkscape:connector-curvature="0" />
    <path
       style="display:inline;opacity:1;fill:#e2e2e2;fill-opacity:1;fill-rule:evenodd;stroke:#000000;stroke-width:0;stroke-linecap:butt;stroke-linejoin:miter;stroke-miterlimit:4;stroke-dasharray:none;stroke-opacity:1;paint-order:markers fill stroke"
       d="m 367.30859,702.57227 v 32.125 h 135.61133 a 16.064598,16.064598 0 1 0 0,-32.125 z"
       transform="scale(0.26458333)"
       id="path1062"
       inkscape:connector-curvature="0" />
    <path
       style="display:inline;opacity:1;fill:#e2e2e2;fill-opacity:1;fill-rule:evenodd;stroke:#000000;stroke-width:0;stroke-linecap:butt;stroke-linejoin:miter;stroke-miterlimit:4;stroke-dasharray:none;stroke-opacity:1;paint-order:markers fill stroke"
       d="m 59.179688,736.23242 a 16.064598,16.064598 0 1 0 0,32.12696 H 201.29688 v -32.12696 z"
       transform="scale(0.26458333)"
       id="path1060"
       inkscape:connector-curvature="0" />
    <path
       style="display:inline;opacity:1;fill:#e2e2e2;fill-opacity:1;fill-rule:evenodd;stroke:#000000;stroke-width:0;stroke-linecap:butt;stroke-linejoin:miter;stroke-miterlimit:4;stroke-dasharray:none;stroke-opacity:1;paint-order:markers fill stroke"
       d="m 207.34961,736.23242 v 32.12696 h 153.91211 v -32.12696 z"
       transform="scale(0.26458333)"
       id="path1058"
       inkscape:connector-curvature="0" />
    <path
       style="display:inline;opacity:1;fill:#e2e2e2;fill-opacity:1;fill-rule:evenodd;stroke:#000000;stroke-width:0;stroke-linecap:butt;stroke-linejoin:miter;stroke-miterlimit:4;stroke-dasharray:none;stroke-opacity:1;paint-order:markers fill stroke"
       d="m 367.30859,736.23242 v 32.12696 h 135.61133 a 16.064598,16.064598 0 1 0 0,-32.12696 z"
       transform="scale(0.26458333)"
       id="rect856-6"
       inkscape:connector-curvature="0" />
    <path
       style="display:inline;opacity:1;fill:#ee9219;fill-opacity:1;fill-rule:evenodd;stroke:#000000;stroke-width:0;stroke-linecap:butt;stroke-linejoin:miter;stroke-miterlimit:4;stroke-dasharray:none;stroke-opacity:1;paint-order:markers fill stroke"
       d="m 59.179688,285.9082 a 16.064598,16.064598 0 1 0 0,32.125 h 1.787109 a 16.064598,16.064598 0 1 0 0,-32.125 z"
       transform="scale(0.26458333)"
       id="path1198"
       inkscape:connector-curvature="0" />
    <path
       style="display:inline;opacity:1;fill:#ee9219;fill-opacity:1;fill-rule:evenodd;stroke:#000000;stroke-width:0;stroke-linecap:butt;stroke-linejoin:miter;stroke-miterlimit:4;stroke-dasharray:none;stroke-opacity:1;paint-order:markers fill stroke"
       d="m 59.179688,320.14453 a 16.064598,16.064598 0 1 0 0,32.12695 h 28.339843 a 16.064598,16.064598 0 1 0 0,-32.12695 z"
       transform="scale(0.26458333)"
       id="path1196"
       inkscape:connector-curvature="0" />
    <path
       style="display:inline;opacity:1;fill:#ee9219;fill-opacity:1;fill-rule:evenodd;stroke:#000000;stroke-width:0;stroke-linecap:butt;stroke-linejoin:miter;stroke-miterlimit:4;stroke-dasharray:none;stroke-opacity:1;paint-order:markers fill stroke"
       d="m 59.179688,354.84766 a 16.064598,16.064598 0 1 0 0,32.125 h 60.488282 a 16.064598,16.064598 0 1 0 0,-32.125 z"
       transform="scale(0.26458333)"
       id="path1194"
       inkscape:connector-curvature="0" />
    <path
       style="display:inline;opacity:1;fill:#ee9219;fill-opacity:1;fill-rule:evenodd;stroke:#000000;stroke-width:0;stroke-linecap:butt;stroke-linejoin:miter;stroke-miterlimit:4;stroke-dasharray:none;stroke-opacity:1;paint-order:markers fill stroke"
       d="m 59.179688,389.49805 a 16.064598,16.064598 0 1 0 0,32.12695 H 151.0918 a 16.064598,16.064598 0 1 0 0,-32.12695 z"
       transform="scale(0.26458333)"
       id="path1192"
       inkscape:connector-curvature="0" />
    <path
       style="display:inline;opacity:1;fill:#ee9219;fill-opacity:1;fill-rule:evenodd;stroke:#000000;stroke-width:0;stroke-linecap:butt;stroke-linejoin:miter;stroke-miterlimit:4;stroke-dasharray:none;stroke-opacity:1;paint-order:markers fill stroke"
       d="m 59.179688,423.5957 a 16.064598,16.064598 0 1 0 0,32.125 H 183.16602 a 16.064598,16.064598 0 1 0 0,-32.125 z"
       transform="scale(0.26458333)"
       id="path1190"
       inkscape:connector-curvature="0" />
    <path
       id="path1186"
       transform="scale(0.26458333)"
       style="display:inline;opacity:1;fill:#ee9219;fill-opacity:1;fill-rule:evenodd;stroke:#000000;stroke-width:0;stroke-linecap:butt;stroke-linejoin:miter;stroke-miterlimit:4;stroke-dasharray:none;stroke-opacity:1;paint-order:markers fill stroke"
       d="m 207.34961,459.31641 v 32.125 H 215.5 a 16.064598,16.064598 0 1 0 0,-32.125 z m -148.169922,0 a 16.064598,16.064598 0 1 0 0,32.125 H 201.29688 v -32.125 z" />
    <path
       id="path1182"
       transform="scale(0.26458333)"
       style="display:inline;opacity:1;fill:#ee9219;fill-opacity:1;fill-rule:evenodd;stroke:#000000;stroke-width:0;stroke-linecap:butt;stroke-linejoin:miter;stroke-miterlimit:4;stroke-dasharray:none;stroke-opacity:1;paint-order:markers fill stroke"
       d="m 207.34961,494.05469 v 32.12695 h 40.47461 a 16.064598,16.064598 0 1 0 0,-32.12695 z m -148.169922,0 a 16.064598,16.064598 0 1 0 0,32.12695 H 201.29688 v -32.12695 z" />
    <path
       id="path1178"
       transform="scale(0.26458333)"
       style="display:inline;opacity:1;fill:#ee9219;fill-opacity:1;fill-rule:evenodd;stroke:#000000;stroke-width:0;stroke-linecap:butt;stroke-linejoin:miter;stroke-miterlimit:4;stroke-dasharray:none;stroke-opacity:1;paint-order:markers fill stroke"
       d="m 207.34961,528.40234 v 32.12696 h 71.36133 a 16.064598,16.064598 0 1 0 0,-32.12696 z m -148.169922,0 a 16.064598,16.064598 0 1 0 0,32.12696 H 201.29688 v -32.12696 z" />
    <path
       id="path1174"
       transform="scale(0.26458333)"
       style="display:inline;opacity:1;fill:#ee9219;fill-opacity:1;fill-rule:evenodd;stroke:#000000;stroke-width:0;stroke-linecap:butt;stroke-linejoin:miter;stroke-miterlimit:4;stroke-dasharray:none;stroke-opacity:1;paint-order:markers fill stroke"
       d="m 207.34961,563.38672 v 32.125 h 104.40234 a 16.064598,16.064598 0 1 0 0,-32.125 z m -148.169922,0 a 16.064598,16.064598 0 1 0 0,32.125 H 201.29688 v -32.125 z" />
    <path
       id="path1170"
       transform="scale(0.26458333)"
       style="display:inline;opacity:1;fill:#ee9219;fill-opacity:1;fill-rule:evenodd;stroke:#000000;stroke-width:0;stroke-linecap:butt;stroke-linejoin:miter;stroke-miterlimit:4;stroke-dasharray:none;stroke-opacity:1;paint-order:markers fill stroke"
       d="m 207.34961,597.89648 v 32.125 H 343 a 16.064598,16.064598 0 1 0 0,-32.125 z m -148.169922,0 a 16.064598,16.064598 0 1 0 0,32.125 H 201.29688 v -32.125 z" />
    <path
       id="path1164"
       transform="scale(0.26458333)"
       style="display:inline;opacity:1;fill:#ee9219;fill-opacity:1;fill-rule:evenodd;stroke:#000000;stroke-width:0;stroke-linecap:butt;stroke-linejoin:miter;stroke-miterlimit:4;stroke-dasharray:none;stroke-opacity:1;paint-order:markers fill stroke"
       d="m 367.30859,631.93359 v 32.12696 h 7.19727 a 16.064598,16.064598 0 1 0 0,-32.12696 z m -159.95898,0 v 32.12696 h 153.91211 v -32.12696 z m -148.169922,0 a 16.064598,16.064598 0 1 0 0,32.12696 H 201.29688 v -32.12696 z" />
    <path
       id="path1158"
       transform="scale(0.26458333)"
       style="display:inline;opacity:1;fill:#ee9219;fill-opacity:1;fill-rule:evenodd;stroke:#000000;stroke-width:0;stroke-linecap:butt;stroke-linejoin:miter;stroke-miterlimit:4;stroke-dasharray:none;stroke-opacity:1;paint-order:markers fill stroke"
       d="m 367.30859,666.12695 v 32.12696 H 406.75 a 16.064598,16.064598 0 1 0 0,-32.12696 z m -159.95898,0 v 32.12696 h 153.91211 v -32.12696 z m -148.169922,0 a 16.064598,16.064598 0 1 0 0,32.12696 H 201.29688 v -32.12696 z" />
    <path
       id="path1152"
       transform="scale(0.26458333)"
       style="display:inline;opacity:1;fill:#ee9219;fill-opacity:1;fill-rule:evenodd;stroke:#000000;stroke-width:0;stroke-linecap:butt;stroke-linejoin:miter;stroke-miterlimit:4;stroke-dasharray:none;stroke-opacity:1;paint-order:markers fill stroke"
       d="m 367.30859,702.57227 v 32.125 h 71.47071 a 16.064598,16.064598 0 1 0 0,-32.125 z m -159.95898,0 v 32.125 h 153.91211 v -32.125 z m -148.169922,0 a 16.064598,16.064598 0 1 0 0,32.125 H 201.29688 v -32.125 z" />
    <path
       id="rect856-4"
       transform="scale(0.26458333)"
       style="display:inline;opacity:1;fill:#ee9219;fill-opacity:1;fill-rule:evenodd;stroke:#000000;stroke-width:0;stroke-linecap:butt;stroke-linejoin:miter;stroke-miterlimit:4;stroke-dasharray:none;stroke-opacity:1;paint-order:markers fill stroke"
       d="m 367.30859,736.23242 v 32.12696 h 103.06446 a 16.064598,16.064598 0 1 0 0,-32.12696 z m -159.95898,0 v 32.12696 h 153.91211 v -32.12696 z m -148.169922,0 a 16.064598,16.064598 0 1 0 0,32.12696 H 201.29688 v -32.12696 z" />
  </g>
  <g
     inkscape:groupmode="layer"
     id="layer3"
     inkscape:label="BG"
     style="display:inline"
     transform="translate(-11.357277,-66.0737)" />
  <g
     inkscape:label="FG"
     inkscape:groupmode="layer"
     id="layer1"
     style="display:inline"
     transform="translate(-11.357277,-66.0737)" />
  <g
     inkscape:groupmode="layer"
     id="layer4"
     inkscape:label="Mask"
     transform="translate(-11.357277,-66.0737)" />
</svg>
